<svg width="33" height="32" viewBox="0 0 33 32" fill="none" xmlns="http://www.w3.org/2000/svg">
<path d="M17.4104 26.4874L27.5354 16.3624C30.0229 13.8624 30.3854 9.77493 28.0354 7.16243C27.4461 6.50407 26.7287 5.97278 25.927 5.60103C25.1254 5.22929 24.2564 5.02488 23.3732 5.00032C22.4899 4.97575 21.6109 5.13153 20.7898 5.45814C19.9688 5.78476 19.223 6.27534 18.5979 6.89993L16.6979 8.81243L15.0604 7.16243C12.5604 4.67493 8.47293 4.31243 5.86043 6.66243C5.20206 7.25179 4.67078 7.96919 4.29903 8.7708C3.92728 9.57242 3.72288 10.4414 3.69831 11.3247C3.67375 12.208 3.82953 13.087 4.15614 13.908C4.48276 14.7291 4.97334 15.4749 5.59793 16.0999L15.9854 26.4874C16.175 26.6752 16.4311 26.7806 16.6979 26.7806C16.9648 26.7806 17.2208 26.6752 17.4104 26.4874V26.4874Z" stroke="#D9D9D9" stroke-width="2" stroke-linecap="round" stroke-linejoin="round"/>
</svg>
