<svg width="209" height="33" viewBox="0 0 209 33" fill="none" xmlns="http://www.w3.org/2000/svg">
<path d="M50.3939 23.8574H46.8382V9.41376C46.8382 8.40835 47.0344 7.56233 47.4267 6.8757C47.8272 6.1809 48.3872 5.65776 49.1065 5.30627C49.834 4.94661 50.6964 4.76678 51.6936 4.76678C52.0206 4.76678 52.3353 4.7913 52.6377 4.84035C52.9401 4.88122 53.2344 4.93435 53.5205 4.99974L53.4837 7.66042C53.3284 7.61955 53.1649 7.59094 52.9933 7.57459C52.8216 7.55824 52.6214 7.55007 52.3925 7.55007C51.9674 7.55007 51.6037 7.62363 51.3012 7.77077C51.007 7.90973 50.7822 8.11817 50.6269 8.39609C50.4716 8.67401 50.3939 9.01323 50.3939 9.41376V23.8574ZM53.0423 10.5908V13.0921H44.8641V10.5908H53.0423ZM54.3297 17.359V17.1015C54.3297 16.1288 54.4687 15.2337 54.7466 14.4163C55.0245 13.5907 55.4292 12.8755 55.9605 12.2706C56.4918 11.6657 57.1457 11.1957 57.9223 10.8606C58.6988 10.5173 59.5898 10.3456 60.5952 10.3456C61.6006 10.3456 62.4957 10.5173 63.2804 10.8606C64.0651 11.1957 64.7231 11.6657 65.2545 12.2706C65.7939 12.8755 66.2026 13.5907 66.4806 14.4163C66.7585 15.2337 66.8974 16.1288 66.8974 17.1015V17.359C66.8974 18.3235 66.7585 19.2186 66.4806 20.0442C66.2026 20.8616 65.7939 21.5768 65.2545 22.1899C64.7231 22.7948 64.0692 23.2648 63.2927 23.5999C62.5161 23.9351 61.6251 24.1026 60.6197 24.1026C59.6143 24.1026 58.7192 23.9351 57.9345 23.5999C57.158 23.2648 56.5 22.7948 55.9605 22.1899C55.4292 21.5768 55.0245 20.8616 54.7466 20.0442C54.4687 19.2186 54.3297 18.3235 54.3297 17.359ZM57.861 17.1015V17.359C57.861 17.9148 57.91 18.4339 58.0081 18.9162C58.1062 19.3984 58.2615 19.8235 58.474 20.1913C58.6947 20.551 58.9808 20.833 59.3323 21.0374C59.6838 21.2417 60.1129 21.3439 60.6197 21.3439C61.1102 21.3439 61.5311 21.2417 61.8826 21.0374C62.2341 20.833 62.5161 20.551 62.7287 20.1913C62.9412 19.8235 63.0965 19.3984 63.1946 18.9162C63.3008 18.4339 63.354 17.9148 63.354 17.359V17.1015C63.354 16.562 63.3008 16.0552 63.1946 15.5811C63.0965 15.0989 62.9371 14.6738 62.7164 14.306C62.5039 13.93 62.2219 13.6357 61.8704 13.4232C61.5189 13.2106 61.0938 13.1044 60.5952 13.1044C60.0966 13.1044 59.6715 13.2106 59.32 13.4232C58.9767 13.6357 58.6947 13.93 58.474 14.306C58.2615 14.6738 58.1062 15.0989 58.0081 15.5811C57.91 16.0552 57.861 16.562 57.861 17.1015ZM68.5037 17.359V17.1015C68.5037 16.1288 68.6426 15.2337 68.9205 14.4163C69.1985 13.5907 69.6031 12.8755 70.1344 12.2706C70.6657 11.6657 71.3196 11.1957 72.0962 10.8606C72.8727 10.5173 73.7637 10.3456 74.7691 10.3456C75.7745 10.3456 76.6696 10.5173 77.4543 10.8606C78.239 11.1957 78.897 11.6657 79.4284 12.2706C79.9679 12.8755 80.3766 13.5907 80.6545 14.4163C80.9324 15.2337 81.0714 16.1288 81.0714 17.1015V17.359C81.0714 18.3235 80.9324 19.2186 80.6545 20.0442C80.3766 20.8616 79.9679 21.5768 79.4284 22.1899C78.897 22.7948 78.2431 23.2648 77.4666 23.5999C76.69 23.9351 75.7991 24.1026 74.7936 24.1026C73.7882 24.1026 72.8932 23.9351 72.1084 23.5999C71.3319 23.2648 70.6739 22.7948 70.1344 22.1899C69.6031 21.5768 69.1985 20.8616 68.9205 20.0442C68.6426 19.2186 68.5037 18.3235 68.5037 17.359ZM72.0349 17.1015V17.359C72.0349 17.9148 72.0839 18.4339 72.182 18.9162C72.2801 19.3984 72.4354 19.8235 72.6479 20.1913C72.8686 20.551 73.1547 20.833 73.5062 21.0374C73.8577 21.2417 74.2868 21.3439 74.7936 21.3439C75.2841 21.3439 75.7051 21.2417 76.0565 21.0374C76.408 20.833 76.69 20.551 76.9026 20.1913C77.1151 19.8235 77.2704 19.3984 77.3685 18.9162C77.4748 18.4339 77.5279 17.9148 77.5279 17.359V17.1015C77.5279 16.562 77.4748 16.0552 77.3685 15.5811C77.2704 15.0989 77.111 14.6738 76.8903 14.306C76.6778 13.93 76.3958 13.6357 76.0443 13.4232C75.6928 13.2106 75.2677 13.1044 74.7691 13.1044C74.2705 13.1044 73.8454 13.2106 73.494 13.4232C73.1506 13.6357 72.8686 13.93 72.6479 14.306C72.4354 14.6738 72.2801 15.0989 72.182 15.5811C72.0839 16.0552 72.0349 16.562 72.0349 17.1015ZM91.0765 20.9638V5.02426H94.6322V23.8574H91.432L91.0765 20.9638ZM82.6898 17.3835V17.126C82.6898 16.1124 82.8043 15.1929 83.0331 14.3673C83.262 13.5335 83.5972 12.8183 84.0386 12.2216C84.48 11.6249 85.0235 11.163 85.6693 10.8361C86.3151 10.5091 87.0507 10.3456 87.8763 10.3456C88.6528 10.3456 89.3313 10.5091 89.9117 10.8361C90.5002 11.163 90.9988 11.6289 91.4075 12.2338C91.8244 12.8305 92.1595 13.5376 92.4129 14.355C92.6663 15.1643 92.8503 16.0511 92.9647 17.0157V17.5797C92.8503 18.5034 92.6663 19.3617 92.4129 20.1545C92.1595 20.9474 91.8244 21.6422 91.4075 22.2389C90.9988 22.8275 90.5002 23.2852 89.9117 23.6122C89.3231 23.9392 88.6365 24.1026 87.8518 24.1026C87.0262 24.1026 86.2905 23.9351 85.6448 23.5999C85.0072 23.2648 84.4677 22.7948 84.0263 22.1899C83.5931 21.585 83.262 20.8739 83.0331 20.0565C82.8043 19.239 82.6898 18.3481 82.6898 17.3835ZM86.2211 17.126V17.3835C86.2211 17.9312 86.2619 18.4421 86.3437 18.9162C86.4336 19.3903 86.5766 19.8112 86.7728 20.1791C86.9772 20.5387 87.2387 20.8207 87.5575 21.0251C87.8845 21.2213 88.2809 21.3194 88.7469 21.3194C89.3517 21.3194 89.8504 21.1845 90.2427 20.9147C90.6351 20.6368 90.9334 20.2567 91.1378 19.7745C91.3503 19.2922 91.4729 18.7363 91.5056 18.1069V16.5007C91.4811 15.9858 91.4075 15.5239 91.2849 15.1152C91.1705 14.6983 90.9988 14.3428 90.7699 14.0485C90.5492 13.7542 90.2713 13.5253 89.9362 13.3619C89.6092 13.1984 89.221 13.1166 88.7714 13.1166C88.3136 13.1166 87.9213 13.2229 87.5943 13.4354C87.2673 13.6398 87.0017 13.9218 86.7973 14.2814C86.6011 14.6411 86.454 15.0662 86.3559 15.5566C86.266 16.0389 86.2211 16.562 86.2211 17.126ZM109.75 24.1026C108.72 24.1026 107.797 23.9392 106.979 23.6122C106.162 23.2771 105.467 22.8152 104.895 22.2267C104.331 21.6382 103.898 20.9556 103.595 20.1791C103.293 19.3944 103.141 18.5606 103.141 17.6778V17.1873C103.141 16.1819 103.285 15.2623 103.571 14.4286C103.857 13.5948 104.265 12.8714 104.797 12.2584C105.336 11.6453 105.99 11.1753 106.759 10.8483C107.527 10.5132 108.393 10.3456 109.358 10.3456C110.298 10.3456 111.132 10.5009 111.859 10.8115C112.587 11.1222 113.196 11.5636 113.686 12.1357C114.185 12.7079 114.561 13.3946 114.814 14.1956C115.067 14.9885 115.194 15.8713 115.194 16.844V18.3154H104.65V15.9612H111.724V15.6915C111.724 15.201 111.634 14.7637 111.455 14.3795C111.283 13.9872 111.021 13.6766 110.67 13.4477C110.318 13.2188 109.869 13.1044 109.321 13.1044C108.855 13.1044 108.455 13.2066 108.12 13.4109C107.784 13.6153 107.511 13.9014 107.298 14.2692C107.094 14.637 106.938 15.0703 106.832 15.5689C106.734 16.0593 106.685 16.5988 106.685 17.1873V17.6778C106.685 18.2091 106.759 18.6996 106.906 19.1491C107.061 19.5987 107.278 19.987 107.555 20.3139C107.842 20.6409 108.185 20.8943 108.585 21.0741C108.994 21.254 109.456 21.3439 109.971 21.3439C110.609 21.3439 111.201 21.2213 111.749 20.976C112.305 20.7226 112.783 20.3426 113.183 19.8358L114.9 21.6995C114.622 22.1 114.242 22.4842 113.76 22.852C113.286 23.2198 112.713 23.5223 112.043 23.7593C111.373 23.9882 110.609 24.1026 109.75 24.1026ZM120.05 10.5908L122.244 14.6248L124.5 10.5908H128.265L124.513 17.077L128.436 23.8574H124.66L122.269 19.5905L119.878 23.8574H116.102L120.025 17.077L116.273 10.5908H120.05ZM133.512 13.1412V28.9581H129.981V10.5908H133.255L133.512 13.1412ZM141.911 17.077V17.3345C141.911 18.299 141.797 19.1941 141.568 20.0197C141.347 20.8453 141.02 21.5646 140.587 22.1776C140.154 22.7825 139.614 23.2566 138.969 23.5999C138.331 23.9351 137.595 24.1026 136.762 24.1026C135.952 24.1026 135.249 23.9392 134.653 23.6122C134.056 23.2852 133.553 22.8275 133.145 22.2389C132.744 21.6422 132.421 20.9515 132.176 20.1668C131.931 19.3821 131.743 18.5402 131.612 17.641V16.9666C131.743 16.0021 131.931 15.1193 132.176 14.3182C132.421 13.509 132.744 12.8101 133.145 12.2216C133.553 11.6249 134.052 11.163 134.64 10.8361C135.237 10.5091 135.936 10.3456 136.737 10.3456C137.579 10.3456 138.319 10.505 138.956 10.8238C139.602 11.1426 140.142 11.6003 140.575 12.197C141.016 12.7938 141.347 13.5049 141.568 14.3305C141.797 15.1561 141.911 16.0716 141.911 17.077ZM138.368 17.3345V17.077C138.368 16.513 138.319 15.9939 138.221 15.5198C138.131 15.0376 137.984 14.6166 137.779 14.2569C137.583 13.8973 137.322 13.6193 136.995 13.4232C136.676 13.2188 136.287 13.1166 135.83 13.1166C135.347 13.1166 134.935 13.1943 134.591 13.3496C134.256 13.5049 133.982 13.7297 133.77 14.024C133.557 14.3182 133.398 14.6697 133.292 15.0784C133.185 15.4871 133.12 15.949 133.096 16.4639V18.1682C133.136 18.7731 133.251 19.3167 133.439 19.799C133.627 20.2731 133.917 20.6491 134.309 20.927C134.702 21.2049 135.217 21.3439 135.854 21.3439C136.32 21.3439 136.713 21.2417 137.031 21.0374C137.35 20.8248 137.608 20.5346 137.804 20.1668C138.008 19.799 138.151 19.3739 138.233 18.8916C138.323 18.4094 138.368 17.8903 138.368 17.3345ZM147.833 5.02426V23.8574H144.29V5.02426H147.833ZM150.188 17.359V17.1015C150.188 16.1288 150.327 15.2337 150.604 14.4163C150.882 13.5907 151.287 12.8755 151.818 12.2706C152.35 11.6657 153.004 11.1957 153.78 10.8606C154.557 10.5173 155.448 10.3456 156.453 10.3456C157.458 10.3456 158.354 10.5173 159.138 10.8606C159.923 11.1957 160.581 11.6657 161.112 12.2706C161.652 12.8755 162.06 13.5907 162.338 14.4163C162.616 15.2337 162.755 16.1288 162.755 17.1015V17.359C162.755 18.3235 162.616 19.2186 162.338 20.0442C162.06 20.8616 161.652 21.5768 161.112 22.1899C160.581 22.7948 159.927 23.2648 159.15 23.5999C158.374 23.9351 157.483 24.1026 156.478 24.1026C155.472 24.1026 154.577 23.9351 153.792 23.5999C153.016 23.2648 152.358 22.7948 151.818 22.1899C151.287 21.5768 150.882 20.8616 150.604 20.0442C150.327 19.2186 150.188 18.3235 150.188 17.359ZM153.719 17.1015V17.359C153.719 17.9148 153.768 18.4339 153.866 18.9162C153.964 19.3984 154.119 19.8235 154.332 20.1913C154.553 20.551 154.839 20.833 155.19 21.0374C155.542 21.2417 155.971 21.3439 156.478 21.3439C156.968 21.3439 157.389 21.2417 157.74 21.0374C158.092 20.833 158.374 20.551 158.586 20.1913C158.799 19.8235 158.954 19.3984 159.052 18.9162C159.159 18.4339 159.212 17.9148 159.212 17.359V17.1015C159.212 16.562 159.159 16.0552 159.052 15.5811C158.954 15.0989 158.795 14.6738 158.574 14.306C158.362 13.93 158.08 13.6357 157.728 13.4232C157.377 13.2106 156.952 13.1044 156.453 13.1044C155.954 13.1044 155.529 13.2106 155.178 13.4232C154.835 13.6357 154.553 13.93 154.332 14.306C154.119 14.6738 153.964 15.0989 153.866 15.5811C153.768 16.0552 153.719 16.562 153.719 17.1015ZM168.457 13.4845V23.8574H164.925V10.5908H168.248L168.457 13.4845ZM172.454 10.505L172.393 13.7787C172.221 13.7542 172.012 13.7338 171.767 13.7174C171.53 13.6929 171.314 13.6807 171.117 13.6807C170.619 13.6807 170.186 13.746 169.818 13.8768C169.458 13.9994 169.156 14.1834 168.91 14.4286C168.673 14.6738 168.493 14.9722 168.371 15.3236C168.256 15.6751 168.191 16.0757 168.175 16.5252L167.464 16.3045C167.464 15.4463 167.549 14.6575 167.721 13.9381C167.893 13.2106 168.142 12.5771 168.469 12.0377C168.804 11.4982 169.213 11.0813 169.695 10.787C170.177 10.4927 170.729 10.3456 171.35 10.3456C171.547 10.3456 171.747 10.362 171.951 10.3947C172.156 10.4192 172.323 10.456 172.454 10.505ZM179.982 24.1026C178.952 24.1026 178.029 23.9392 177.211 23.6122C176.394 23.2771 175.699 22.8152 175.127 22.2267C174.563 21.6382 174.13 20.9556 173.827 20.1791C173.525 19.3944 173.373 18.5606 173.373 17.6778V17.1873C173.373 16.1819 173.516 15.2623 173.803 14.4286C174.089 13.5948 174.497 12.8714 175.029 12.2584C175.568 11.6453 176.222 11.1753 176.99 10.8483C177.759 10.5132 178.625 10.3456 179.59 10.3456C180.53 10.3456 181.364 10.5009 182.091 10.8115C182.819 11.1222 183.428 11.5636 183.918 12.1357C184.417 12.7079 184.793 13.3946 185.046 14.1956C185.299 14.9885 185.426 15.8713 185.426 16.844V18.3154H174.882V15.9612H181.956V15.6915C181.956 15.201 181.866 14.7637 181.687 14.3795C181.515 13.9872 181.253 13.6766 180.902 13.4477C180.55 13.2188 180.101 13.1044 179.553 13.1044C179.087 13.1044 178.687 13.2066 178.351 13.4109C178.016 13.6153 177.743 13.9014 177.53 14.2692C177.326 14.637 177.17 15.0703 177.064 15.5689C176.966 16.0593 176.917 16.5988 176.917 17.1873V17.6778C176.917 18.2091 176.99 18.6996 177.138 19.1491C177.293 19.5987 177.51 19.987 177.787 20.3139C178.074 20.6409 178.417 20.8943 178.817 21.0741C179.226 21.254 179.688 21.3439 180.203 21.3439C180.841 21.3439 181.433 21.2213 181.981 20.976C182.537 20.7226 183.015 20.3426 183.415 19.8358L185.132 21.6995C184.854 22.1 184.474 22.4842 183.992 22.852C183.518 23.2198 182.945 23.5223 182.275 23.7593C181.605 23.9882 180.841 24.1026 179.982 24.1026ZM190.968 13.4845V23.8574H187.437V10.5908H190.76L190.968 13.4845ZM194.965 10.505L194.904 13.7787C194.732 13.7542 194.524 13.7338 194.279 13.7174C194.042 13.6929 193.825 13.6807 193.629 13.6807C193.13 13.6807 192.697 13.746 192.329 13.8768C191.97 13.9994 191.667 14.1834 191.422 14.4286C191.185 14.6738 191.005 14.9722 190.882 15.3236C190.768 15.6751 190.703 16.0757 190.686 16.5252L189.975 16.3045C189.975 15.4463 190.061 14.6575 190.233 13.9381C190.404 13.2106 190.654 12.5771 190.98 12.0377C191.316 11.4982 191.724 11.0813 192.207 10.787C192.689 10.4927 193.241 10.3456 193.862 10.3456C194.058 10.3456 194.258 10.362 194.463 10.3947C194.667 10.4192 194.835 10.456 194.965 10.505Z" fill="white" fill-opacity="0.3"/>
<path d="M16.452 1.18945L30.1923 9.10633V24.9401L16.452 32.857L2.7118 24.9401V9.10633L16.452 1.18945Z" fill="white" fill-opacity="0.3"/>
</svg>
