<svg width="251" height="251" viewBox="0 0 251 251" fill="none" xmlns="http://www.w3.org/2000/svg">
<path d="M0.461182 0.721313H10.4612V10.7213H0.461182V0.721313ZM10.4612 0.721313H20.4612V10.7213H10.4612V0.721313ZM20.4612 0.721313H30.4612V10.7213H20.4612V0.721313ZM30.4612 0.721313H40.4612V10.7213H30.4612V0.721313ZM40.4612 0.721313H50.4612V10.7213H40.4612V0.721313ZM50.4612 0.721313H60.4612V10.7213H50.4612V0.721313ZM60.4612 0.721313H70.4612V10.7213H60.4612V0.721313ZM90.4612 0.721313H100.461V10.7213H90.4612V0.721313ZM130.461 0.721313H140.461V10.7213H130.461V0.721313ZM180.461 0.721313H190.461V10.7213H180.461V0.721313ZM190.461 0.721313H200.461V10.7213H190.461V0.721313ZM200.461 0.721313H210.461V10.7213H200.461V0.721313ZM210.461 0.721313H220.461V10.7213H210.461V0.721313ZM220.461 0.721313H230.461V10.7213H220.461V0.721313ZM230.461 0.721313H240.461V10.7213H230.461V0.721313ZM240.461 0.721313H250.461V10.7213H240.461V0.721313ZM0.461182 10.7213H10.4612V20.7213H0.461182V10.7213ZM60.4612 10.7213H70.4612V20.7213H60.4612V10.7213ZM80.4612 10.7213H90.4612V20.7213H80.4612V10.7213ZM90.4612 10.7213H100.461V20.7213H90.4612V10.7213ZM110.461 10.7213H120.461V20.7213H110.461V10.7213ZM120.461 10.7213H130.461V20.7213H120.461V10.7213ZM130.461 10.7213H140.461V20.7213H130.461V10.7213ZM140.461 10.7213H150.461V20.7213H140.461V10.7213ZM150.461 10.7213H160.461V20.7213H150.461V10.7213ZM180.461 10.7213H190.461V20.7213H180.461V10.7213ZM240.461 10.7213H250.461V20.7213H240.461V10.7213ZM0.461182 20.7213H10.4612V30.7213H0.461182V20.7213ZM20.4612 20.7213H30.4612V30.7213H20.4612V20.7213ZM30.4612 20.7213H40.4612V30.7213H30.4612V20.7213ZM40.4612 20.7213H50.4612V30.7213H40.4612V20.7213ZM60.4612 20.7213H70.4612V30.7213H60.4612V20.7213ZM90.4612 20.7213H100.461V30.7213H90.4612V20.7213ZM100.461 20.7213H110.461V30.7213H100.461V20.7213ZM110.461 20.7213H120.461V30.7213H110.461V20.7213ZM140.461 20.7213H150.461V30.7213H140.461V20.7213ZM180.461 20.7213H190.461V30.7213H180.461V20.7213ZM200.461 20.7213H210.461V30.7213H200.461V20.7213ZM210.461 20.7213H220.461V30.7213H210.461V20.7213ZM220.461 20.7213H230.461V30.7213H220.461V20.7213ZM240.461 20.7213H250.461V30.7213H240.461V20.7213ZM0.461182 30.7213H10.4612V40.7213H0.461182V30.7213ZM20.4612 30.7213H30.4612V40.7213H20.4612V30.7213ZM30.4612 30.7213H40.4612V40.7213H30.4612V30.7213ZM40.4612 30.7213H50.4612V40.7213H40.4612V30.7213ZM60.4612 30.7213H70.4612V40.7213H60.4612V30.7213ZM80.4612 30.7213H90.4612V40.7213H80.4612V30.7213ZM90.4612 30.7213H100.461V40.7213H90.4612V30.7213ZM110.461 30.7213H120.461V40.7213H110.461V30.7213ZM130.461 30.7213H140.461V40.7213H130.461V30.7213ZM140.461 30.7213H150.461V40.7213H140.461V30.7213ZM150.461 30.7213H160.461V40.7213H150.461V30.7213ZM160.461 30.7213H170.461V40.7213H160.461V30.7213ZM180.461 30.7213H190.461V40.7213H180.461V30.7213ZM200.461 30.7213H210.461V40.7213H200.461V30.7213ZM210.461 30.7213H220.461V40.7213H210.461V30.7213ZM220.461 30.7213H230.461V40.7213H220.461V30.7213ZM240.461 30.7213H250.461V40.7213H240.461V30.7213ZM0.461182 40.7213H10.4612V50.7213H0.461182V40.7213ZM20.4612 40.7213H30.4612V50.7213H20.4612V40.7213ZM30.4612 40.7213H40.4612V50.7213H30.4612V40.7213ZM40.4612 40.7213H50.4612V50.7213H40.4612V40.7213ZM60.4612 40.7213H70.4612V50.7213H60.4612V40.7213ZM100.461 40.7213H110.461V50.7213H100.461V40.7213ZM120.461 40.7213H130.461V50.7213H120.461V40.7213ZM160.461 40.7213H170.461V50.7213H160.461V40.7213ZM180.461 40.7213H190.461V50.7213H180.461V40.7213ZM200.461 40.7213H210.461V50.7213H200.461V40.7213ZM210.461 40.7213H220.461V50.7213H210.461V40.7213ZM220.461 40.7213H230.461V50.7213H220.461V40.7213ZM240.461 40.7213H250.461V50.7213H240.461V40.7213ZM0.461182 50.7213H10.4612V60.7213H0.461182V50.7213ZM60.4612 50.7213H70.4612V60.7213H60.4612V50.7213ZM80.4612 50.7213H90.4612V60.7213H80.4612V50.7213ZM100.461 50.7213H110.461V60.7213H100.461V50.7213ZM140.461 50.7213H150.461V60.7213H140.461V50.7213ZM150.461 50.7213H160.461V60.7213H150.461V50.7213ZM180.461 50.7213H190.461V60.7213H180.461V50.7213ZM240.461 50.7213H250.461V60.7213H240.461V50.7213ZM0.461182 60.7213H10.4612V70.7213H0.461182V60.7213ZM10.4612 60.7213H20.4612V70.7213H10.4612V60.7213ZM20.4612 60.7213H30.4612V70.7213H20.4612V60.7213ZM30.4612 60.7213H40.4612V70.7213H30.4612V60.7213ZM40.4612 60.7213H50.4612V70.7213H40.4612V60.7213ZM50.4612 60.7213H60.4612V70.7213H50.4612V60.7213ZM60.4612 60.7213H70.4612V70.7213H60.4612V60.7213ZM80.4612 60.7213H90.4612V70.7213H80.4612V60.7213ZM100.461 60.7213H110.461V70.7213H100.461V60.7213ZM120.461 60.7213H130.461V70.7213H120.461V60.7213ZM140.461 60.7213H150.461V70.7213H140.461V60.7213ZM160.461 60.7213H170.461V70.7213H160.461V60.7213ZM180.461 60.7213H190.461V70.7213H180.461V60.7213ZM190.461 60.7213H200.461V70.7213H190.461V60.7213ZM200.461 60.7213H210.461V70.7213H200.461V60.7213ZM210.461 60.7213H220.461V70.7213H210.461V60.7213ZM220.461 60.7213H230.461V70.7213H220.461V60.7213ZM230.461 60.7213H240.461V70.7213H230.461V60.7213ZM240.461 60.7213H250.461V70.7213H240.461V60.7213ZM120.461 70.7213H130.461V80.7213H120.461V70.7213ZM140.461 70.7213H150.461V80.7213H140.461V70.7213ZM0.461182 80.7213H10.4612V90.7213H0.461182V80.7213ZM10.4612 80.7213H20.4612V90.7213H10.4612V80.7213ZM20.4612 80.7213H30.4612V90.7213H20.4612V80.7213ZM30.4612 80.7213H40.4612V90.7213H30.4612V80.7213ZM40.4612 80.7213H50.4612V90.7213H40.4612V80.7213ZM60.4612 80.7213H70.4612V90.7213H60.4612V80.7213ZM70.4612 80.7213H80.4612V90.7213H70.4612V80.7213ZM80.4612 80.7213H90.4612V90.7213H80.4612V80.7213ZM90.4612 80.7213H100.461V90.7213H90.4612V80.7213ZM100.461 80.7213H110.461V90.7213H100.461V80.7213ZM120.461 80.7213H130.461V90.7213H120.461V80.7213ZM130.461 80.7213H140.461V90.7213H130.461V80.7213ZM140.461 80.7213H150.461V90.7213H140.461V80.7213ZM150.461 80.7213H160.461V90.7213H150.461V80.7213ZM170.461 80.7213H180.461V90.7213H170.461V80.7213ZM190.461 80.7213H200.461V90.7213H190.461V80.7213ZM210.461 80.7213H220.461V90.7213H210.461V80.7213ZM230.461 80.7213H240.461V90.7213H230.461V80.7213ZM30.4612 90.7213H40.4612V100.721H30.4612V90.7213ZM40.4612 90.7213H50.4612V100.721H40.4612V90.7213ZM50.4612 90.7213H60.4612V100.721H50.4612V90.7213ZM70.4612 90.7213H80.4612V100.721H70.4612V90.7213ZM90.4612 90.7213H100.461V100.721H90.4612V90.7213ZM130.461 90.7213H140.461V100.721H130.461V90.7213ZM140.461 90.7213H150.461V100.721H140.461V90.7213ZM160.461 90.7213H170.461V100.721H160.461V90.7213ZM170.461 90.7213H180.461V100.721H170.461V90.7213ZM190.461 90.7213H200.461V100.721H190.461V90.7213ZM210.461 90.7213H220.461V100.721H210.461V90.7213ZM40.4612 100.721H50.4612V110.721H40.4612V100.721ZM50.4612 100.721H60.4612V110.721H50.4612V100.721ZM60.4612 100.721H70.4612V110.721H60.4612V100.721ZM80.4612 100.721H90.4612V110.721H80.4612V100.721ZM90.4612 100.721H100.461V110.721H90.4612V100.721ZM110.461 100.721H120.461V110.721H110.461V100.721ZM120.461 100.721H130.461V110.721H120.461V100.721ZM150.461 100.721H160.461V110.721H150.461V100.721ZM170.461 100.721H180.461V110.721H170.461V100.721ZM180.461 100.721H190.461V110.721H180.461V100.721ZM190.461 100.721H200.461V110.721H190.461V100.721ZM220.461 100.721H230.461V110.721H220.461V100.721ZM230.461 100.721H240.461V110.721H230.461V100.721ZM240.461 100.721H250.461V110.721H240.461V100.721ZM0.461182 110.721H10.4612V120.721H0.461182V110.721ZM10.4612 110.721H20.4612V120.721H10.4612V110.721ZM20.4612 110.721H30.4612V120.721H20.4612V110.721ZM50.4612 110.721H60.4612V120.721H50.4612V110.721ZM90.4612 110.721H100.461V120.721H90.4612V110.721ZM100.461 110.721H110.461V120.721H100.461V110.721ZM110.461 110.721H120.461V120.721H110.461V110.721ZM160.461 110.721H170.461V120.721H160.461V110.721ZM180.461 110.721H190.461V120.721H180.461V110.721ZM230.461 110.721H240.461V120.721H230.461V110.721ZM10.4612 120.721H20.4612V130.721H10.4612V120.721ZM40.4612 120.721H50.4612V130.721H40.4612V120.721ZM60.4612 120.721H70.4612V130.721H60.4612V120.721ZM70.4612 120.721H80.4612V130.721H70.4612V120.721ZM90.4612 120.721H100.461V130.721H90.4612V120.721ZM110.461 120.721H120.461V130.721H110.461V120.721ZM120.461 120.721H130.461V130.721H120.461V120.721ZM130.461 120.721H140.461V130.721H130.461V120.721ZM140.461 120.721H150.461V130.721H140.461V120.721ZM180.461 120.721H190.461V130.721H180.461V120.721ZM200.461 120.721H210.461V130.721H200.461V120.721ZM210.461 120.721H220.461V130.721H210.461V120.721ZM220.461 120.721H230.461V130.721H220.461V120.721ZM230.461 120.721H240.461V130.721H230.461V120.721ZM0.461182 130.721H10.4612V140.721H0.461182V130.721ZM10.4612 130.721H20.4612V140.721H10.4612V130.721ZM40.4612 130.721H50.4612V140.721H40.4612V130.721ZM70.4612 130.721H80.4612V140.721H70.4612V130.721ZM90.4612 130.721H100.461V140.721H90.4612V130.721ZM100.461 130.721H110.461V140.721H100.461V130.721ZM120.461 130.721H130.461V140.721H120.461V130.721ZM140.461 130.721H150.461V140.721H140.461V130.721ZM190.461 130.721H200.461V140.721H190.461V130.721ZM210.461 130.721H220.461V140.721H210.461V130.721ZM220.461 130.721H230.461V140.721H220.461V130.721ZM0.461182 140.721H10.4612V150.721H0.461182V140.721ZM20.4612 140.721H30.4612V150.721H20.4612V140.721ZM50.4612 140.721H60.4612V150.721H50.4612V140.721ZM60.4612 140.721H70.4612V150.721H60.4612V140.721ZM70.4612 140.721H80.4612V150.721H70.4612V140.721ZM80.4612 140.721H90.4612V150.721H80.4612V140.721ZM90.4612 140.721H100.461V150.721H90.4612V140.721ZM100.461 140.721H110.461V150.721H100.461V140.721ZM120.461 140.721H130.461V150.721H120.461V140.721ZM150.461 140.721H160.461V150.721H150.461V140.721ZM160.461 140.721H170.461V150.721H160.461V140.721ZM170.461 140.721H180.461V150.721H170.461V140.721ZM190.461 140.721H200.461V150.721H190.461V140.721ZM220.461 140.721H230.461V150.721H220.461V140.721ZM230.461 140.721H240.461V150.721H230.461V140.721ZM240.461 140.721H250.461V150.721H240.461V140.721ZM0.461182 150.721H10.4612V160.721H0.461182V150.721ZM40.4612 150.721H50.4612V160.721H40.4612V150.721ZM80.4612 150.721H90.4612V160.721H80.4612V150.721ZM90.4612 150.721H100.461V160.721H90.4612V150.721ZM100.461 150.721H110.461V160.721H100.461V150.721ZM110.461 150.721H120.461V160.721H110.461V150.721ZM120.461 150.721H130.461V160.721H120.461V150.721ZM150.461 150.721H160.461V160.721H150.461V150.721ZM160.461 150.721H170.461V160.721H160.461V150.721ZM190.461 150.721H200.461V160.721H190.461V150.721ZM0.461182 160.721H10.4612V170.721H0.461182V160.721ZM40.4612 160.721H50.4612V170.721H40.4612V160.721ZM50.4612 160.721H60.4612V170.721H50.4612V160.721ZM60.4612 160.721H70.4612V170.721H60.4612V160.721ZM70.4612 160.721H80.4612V170.721H70.4612V160.721ZM100.461 160.721H110.461V170.721H100.461V160.721ZM130.461 160.721H140.461V170.721H130.461V160.721ZM140.461 160.721H150.461V170.721H140.461V160.721ZM160.461 160.721H170.461V170.721H160.461V160.721ZM170.461 160.721H180.461V170.721H170.461V160.721ZM180.461 160.721H190.461V170.721H180.461V160.721ZM190.461 160.721H200.461V170.721H190.461V160.721ZM200.461 160.721H210.461V170.721H200.461V160.721ZM210.461 160.721H220.461V170.721H210.461V160.721ZM220.461 160.721H230.461V170.721H220.461V160.721ZM240.461 160.721H250.461V170.721H240.461V160.721ZM80.4612 170.721H90.4612V180.721H80.4612V170.721ZM90.4612 170.721H100.461V180.721H90.4612V170.721ZM100.461 170.721H110.461V180.721H100.461V170.721ZM110.461 170.721H120.461V180.721H110.461V170.721ZM130.461 170.721H140.461V180.721H130.461V170.721ZM150.461 170.721H160.461V180.721H150.461V170.721ZM160.461 170.721H170.461V180.721H160.461V170.721ZM200.461 170.721H210.461V180.721H200.461V170.721ZM230.461 170.721H240.461V180.721H230.461V170.721ZM0.461182 180.721H10.4612V190.721H0.461182V180.721ZM10.4612 180.721H20.4612V190.721H10.4612V180.721ZM20.4612 180.721H30.4612V190.721H20.4612V180.721ZM30.4612 180.721H40.4612V190.721H30.4612V180.721ZM40.4612 180.721H50.4612V190.721H40.4612V180.721ZM50.4612 180.721H60.4612V190.721H50.4612V180.721ZM60.4612 180.721H70.4612V190.721H60.4612V180.721ZM80.4612 180.721H90.4612V190.721H80.4612V180.721ZM90.4612 180.721H100.461V190.721H90.4612V180.721ZM140.461 180.721H150.461V190.721H140.461V180.721ZM160.461 180.721H170.461V190.721H160.461V180.721ZM180.461 180.721H190.461V190.721H180.461V180.721ZM200.461 180.721H210.461V190.721H200.461V180.721ZM230.461 180.721H240.461V190.721H230.461V180.721ZM240.461 180.721H250.461V190.721H240.461V180.721ZM0.461182 190.721H10.4612V200.721H0.461182V190.721ZM60.4612 190.721H70.4612V200.721H60.4612V190.721ZM90.4612 190.721H100.461V200.721H90.4612V190.721ZM160.461 190.721H170.461V200.721H160.461V190.721ZM200.461 190.721H210.461V200.721H200.461V190.721ZM0.461182 200.721H10.4612V210.721H0.461182V200.721ZM20.4612 200.721H30.4612V210.721H20.4612V200.721ZM30.4612 200.721H40.4612V210.721H30.4612V200.721ZM40.4612 200.721H50.4612V210.721H40.4612V200.721ZM60.4612 200.721H70.4612V210.721H60.4612V200.721ZM80.4612 200.721H90.4612V210.721H80.4612V200.721ZM100.461 200.721H110.461V210.721H100.461V200.721ZM120.461 200.721H130.461V210.721H120.461V200.721ZM130.461 200.721H140.461V210.721H130.461V200.721ZM140.461 200.721H150.461V210.721H140.461V200.721ZM150.461 200.721H160.461V210.721H150.461V200.721ZM160.461 200.721H170.461V210.721H160.461V200.721ZM170.461 200.721H180.461V210.721H170.461V200.721ZM180.461 200.721H190.461V210.721H180.461V200.721ZM190.461 200.721H200.461V210.721H190.461V200.721ZM200.461 200.721H210.461V210.721H200.461V200.721ZM220.461 200.721H230.461V210.721H220.461V200.721ZM0.461182 210.721H10.4612V220.721H0.461182V210.721ZM20.4612 210.721H30.4612V220.721H20.4612V210.721ZM30.4612 210.721H40.4612V220.721H30.4612V210.721ZM40.4612 210.721H50.4612V220.721H40.4612V210.721ZM60.4612 210.721H70.4612V220.721H60.4612V210.721ZM80.4612 210.721H90.4612V220.721H80.4612V210.721ZM110.461 210.721H120.461V220.721H110.461V210.721ZM130.461 210.721H140.461V220.721H130.461V210.721ZM160.461 210.721H170.461V220.721H160.461V210.721ZM170.461 210.721H180.461V220.721H170.461V210.721ZM180.461 210.721H190.461V220.721H180.461V210.721ZM200.461 210.721H210.461V220.721H200.461V210.721ZM230.461 210.721H240.461V220.721H230.461V210.721ZM240.461 210.721H250.461V220.721H240.461V210.721ZM0.461182 220.721H10.4612V230.721H0.461182V220.721ZM20.4612 220.721H30.4612V230.721H20.4612V220.721ZM30.4612 220.721H40.4612V230.721H30.4612V220.721ZM40.4612 220.721H50.4612V230.721H40.4612V220.721ZM60.4612 220.721H70.4612V230.721H60.4612V220.721ZM80.4612 220.721H90.4612V230.721H80.4612V220.721ZM90.4612 220.721H100.461V230.721H90.4612V220.721ZM120.461 220.721H130.461V230.721H120.461V220.721ZM130.461 220.721H140.461V230.721H130.461V220.721ZM140.461 220.721H150.461V230.721H140.461V220.721ZM160.461 220.721H170.461V230.721H160.461V220.721ZM190.461 220.721H200.461V230.721H190.461V220.721ZM210.461 220.721H220.461V230.721H210.461V220.721ZM240.461 220.721H250.461V230.721H240.461V220.721ZM0.461182 230.721H10.4612V240.721H0.461182V230.721ZM60.4612 230.721H70.4612V240.721H60.4612V230.721ZM80.4612 230.721H90.4612V240.721H80.4612V230.721ZM90.4612 230.721H100.461V240.721H90.4612V230.721ZM110.461 230.721H120.461V240.721H110.461V230.721ZM120.461 230.721H130.461V240.721H120.461V230.721ZM140.461 230.721H150.461V240.721H140.461V230.721ZM150.461 230.721H160.461V240.721H150.461V230.721ZM160.461 230.721H170.461V240.721H160.461V230.721ZM180.461 230.721H190.461V240.721H180.461V230.721ZM190.461 230.721H200.461V240.721H190.461V230.721ZM200.461 230.721H210.461V240.721H200.461V230.721ZM240.461 230.721H250.461V240.721H240.461V230.721ZM0.461182 240.721H10.4612V250.721H0.461182V240.721ZM10.4612 240.721H20.4612V250.721H10.4612V240.721ZM20.4612 240.721H30.4612V250.721H20.4612V240.721ZM30.4612 240.721H40.4612V250.721H30.4612V240.721ZM40.4612 240.721H50.4612V250.721H40.4612V240.721ZM50.4612 240.721H60.4612V250.721H50.4612V240.721ZM60.4612 240.721H70.4612V250.721H60.4612V240.721ZM80.4612 240.721H90.4612V250.721H80.4612V240.721ZM100.461 240.721H110.461V250.721H100.461V240.721ZM130.461 240.721H140.461V250.721H130.461V240.721ZM140.461 240.721H150.461V250.721H140.461V240.721ZM170.461 240.721H180.461V250.721H170.461V240.721ZM220.461 240.721H230.461V250.721H220.461V240.721ZM230.461 240.721H240.461V250.721H230.461V240.721ZM240.461 240.721H250.461V250.721H240.461V240.721Z" fill="#76797B"/>
</svg>
