<svg width="325" height="50" viewBox="0 0 325 50" fill="none" xmlns="http://www.w3.org/2000/svg">
<path d="M79.2281 40.7178H73.2127V16.2826C73.2127 14.5817 73.5445 13.1504 74.2083 11.9888C74.8859 10.8134 75.8332 9.92834 77.0501 9.33371C78.2808 8.72525 79.7398 8.42102 81.4269 8.42102C81.98 8.42102 82.5124 8.46251 83.0241 8.54548C83.5357 8.61463 84.0335 8.70451 84.5176 8.81514L84.4553 13.3164C84.1926 13.2472 83.916 13.1988 83.6256 13.1712C83.3352 13.1435 82.9964 13.1297 82.6092 13.1297C81.8901 13.1297 81.2747 13.2541 80.7631 13.503C80.2652 13.7381 79.885 14.0908 79.6222 14.5609C79.3595 15.0311 79.2281 15.605 79.2281 16.2826V40.7178ZM83.7086 18.2739V22.5055H69.873V18.2739H83.7086ZM85.8866 29.724V29.2884C85.8866 27.6428 86.1217 26.1286 86.5918 24.7457C87.062 23.349 87.7465 22.139 88.6454 21.1157C89.5443 20.0924 90.6505 19.2972 91.9643 18.7303C93.278 18.1495 94.7853 17.8591 96.4862 17.8591C98.1871 17.8591 99.7014 18.1495 101.029 18.7303C102.356 19.2972 103.47 20.0924 104.369 21.1157C105.281 22.139 105.973 23.349 106.443 24.7457C106.913 26.1286 107.148 27.6428 107.148 29.2884V29.724C107.148 31.3558 106.913 32.87 106.443 34.2667C105.973 35.6496 105.281 36.8596 104.369 37.8967C103.47 38.9201 102.363 39.7152 101.05 40.2822C99.7359 40.8491 98.2286 41.1326 96.5277 41.1326C94.8268 41.1326 93.3126 40.8491 91.985 40.2822C90.6713 39.7152 89.5581 38.9201 88.6454 37.8967C87.7465 36.8596 87.062 35.6496 86.5918 34.2667C86.1217 32.87 85.8866 31.3558 85.8866 29.724ZM91.8605 29.2884V29.724C91.8605 30.6644 91.9435 31.5425 92.1095 32.3584C92.2754 33.1743 92.5382 33.8933 92.8977 34.5156C93.2711 35.1241 93.7551 35.6012 94.3497 35.9469C94.9443 36.2926 95.6703 36.4655 96.5277 36.4655C97.3574 36.4655 98.0696 36.2926 98.6642 35.9469C99.2589 35.6012 99.7359 35.1241 100.095 34.5156C100.455 33.8933 100.718 33.1743 100.884 32.3584C101.063 31.5425 101.153 30.6644 101.153 29.724V29.2884C101.153 28.3757 101.063 27.5184 100.884 26.7163C100.718 25.9004 100.448 25.1813 100.075 24.559C99.7152 23.9229 99.2381 23.4251 98.6435 23.0655C98.0489 22.706 97.3298 22.5262 96.4862 22.5262C95.6427 22.5262 94.9236 22.706 94.329 23.0655C93.7482 23.4251 93.2711 23.9229 92.8977 24.559C92.5382 25.1813 92.2754 25.9004 92.1095 26.7163C91.9435 27.5184 91.8605 28.3757 91.8605 29.2884ZM109.865 29.724V29.2884C109.865 27.6428 110.101 26.1286 110.571 24.7457C111.041 23.349 111.725 22.139 112.624 21.1157C113.523 20.0924 114.629 19.2972 115.943 18.7303C117.257 18.1495 118.764 17.8591 120.465 17.8591C122.166 17.8591 123.68 18.1495 125.008 18.7303C126.335 19.2972 127.449 20.0924 128.347 21.1157C129.26 22.139 129.951 23.349 130.422 24.7457C130.892 26.1286 131.127 27.6428 131.127 29.2884V29.724C131.127 31.3558 130.892 32.87 130.422 34.2667C129.951 35.6496 129.26 36.8596 128.347 37.8967C127.449 38.9201 126.342 39.7152 125.029 40.2822C123.715 40.8491 122.207 41.1326 120.507 41.1326C118.806 41.1326 117.291 40.8491 115.964 40.2822C114.65 39.7152 113.537 38.9201 112.624 37.8967C111.725 36.8596 111.041 35.6496 110.571 34.2667C110.101 32.87 109.865 31.3558 109.865 29.724ZM115.839 29.2884V29.724C115.839 30.6644 115.922 31.5425 116.088 32.3584C116.254 33.1743 116.517 33.8933 116.877 34.5156C117.25 35.1241 117.734 35.6012 118.329 35.9469C118.923 36.2926 119.649 36.4655 120.507 36.4655C121.336 36.4655 122.048 36.2926 122.643 35.9469C123.238 35.6012 123.715 35.1241 124.074 34.5156C124.434 33.8933 124.697 33.1743 124.863 32.3584C125.042 31.5425 125.132 30.6644 125.132 29.724V29.2884C125.132 28.3757 125.042 27.5184 124.863 26.7163C124.697 25.9004 124.427 25.1813 124.054 24.559C123.694 23.9229 123.217 23.4251 122.622 23.0655C122.028 22.706 121.309 22.5262 120.465 22.5262C119.622 22.5262 118.902 22.706 118.308 23.0655C117.727 23.4251 117.25 23.9229 116.877 24.559C116.517 25.1813 116.254 25.9004 116.088 26.7163C115.922 27.5184 115.839 28.3757 115.839 29.2884ZM148.053 35.8224V8.85663H154.069V40.7178H148.655L148.053 35.8224ZM133.865 29.7655V29.3299C133.865 27.6152 134.059 26.0594 134.446 24.6627C134.833 23.2522 135.4 22.0422 136.147 21.0327C136.893 20.0232 137.813 19.2419 138.906 18.6888C139.998 18.1356 141.243 17.8591 142.639 17.8591C143.953 17.8591 145.101 18.1356 146.083 18.6888C147.078 19.2419 147.922 20.0302 148.613 21.0535C149.318 22.063 149.885 23.2591 150.314 24.642C150.743 26.011 151.054 27.5114 151.248 29.1432V30.0974C151.054 31.66 150.743 33.112 150.314 34.4534C149.885 35.7948 149.318 36.9702 148.613 37.9797C147.922 38.9754 147.078 39.7498 146.083 40.3029C145.087 40.8561 143.925 41.1326 142.598 41.1326C141.201 41.1326 139.957 40.8491 138.864 40.2822C137.785 39.7152 136.873 38.9201 136.126 37.8967C135.393 36.8734 134.833 35.6703 134.446 34.2875C134.059 32.9046 133.865 31.3973 133.865 29.7655ZM139.839 29.3299V29.7655C139.839 30.692 139.908 31.5563 140.046 32.3584C140.199 33.1604 140.441 33.8726 140.772 34.4949C141.118 35.1034 141.561 35.5804 142.1 35.9262C142.653 36.258 143.324 36.424 144.112 36.424C145.135 36.424 145.979 36.1958 146.643 35.7395C147.306 35.2693 147.811 34.6263 148.157 33.8104C148.516 32.9945 148.724 32.0541 148.779 30.9893V28.272C148.738 27.4008 148.613 26.6195 148.406 25.9281C148.212 25.2228 147.922 24.6213 147.535 24.1234C147.161 23.6256 146.691 23.2384 146.124 22.9618C145.571 22.6852 144.914 22.547 144.153 22.547C143.379 22.547 142.715 22.7267 142.162 23.0863C141.609 23.432 141.16 23.9091 140.814 24.5175C140.482 25.126 140.233 25.8451 140.067 26.6748C139.915 27.4907 139.839 28.3757 139.839 29.3299ZM179.645 41.1326C177.902 41.1326 176.34 40.8561 174.957 40.3029C173.574 39.7359 172.398 38.9546 171.43 37.959C170.476 36.9633 169.743 35.8086 169.232 34.4949C168.72 33.1673 168.464 31.7568 168.464 30.2633V29.4336C168.464 27.7327 168.706 26.177 169.19 24.7665C169.674 23.3559 170.366 22.1321 171.264 21.095C172.177 20.0578 173.283 19.2627 174.583 18.7095C175.883 18.1425 177.349 17.8591 178.981 17.8591C180.571 17.8591 181.982 18.1218 183.212 18.6473C184.443 19.1728 185.473 19.9195 186.303 20.8875C187.147 21.8555 187.783 23.0171 188.211 24.3723C188.64 25.7137 188.855 27.2072 188.855 28.8528V31.342H171.016V27.3593H182.984V26.903C182.984 26.0733 182.832 25.3334 182.528 24.6835C182.238 24.0197 181.795 23.4942 181.2 23.107C180.606 22.7198 179.845 22.5262 178.919 22.5262C178.13 22.5262 177.453 22.6991 176.886 23.0448C176.319 23.3905 175.856 23.8745 175.496 24.4968C175.15 25.1191 174.888 25.852 174.708 26.6955C174.542 27.5253 174.459 28.438 174.459 29.4336V30.2633C174.459 31.1622 174.583 31.9919 174.832 32.7525C175.095 33.5131 175.461 34.1699 175.932 34.7231C176.416 35.2762 176.996 35.7049 177.674 36.0091C178.365 36.3134 179.147 36.4655 180.018 36.4655C181.097 36.4655 182.099 36.258 183.026 35.8432C183.966 35.4145 184.775 34.7715 185.453 33.9141L188.357 37.067C187.887 37.7446 187.243 38.3946 186.428 39.0169C185.626 39.6391 184.658 40.1508 183.524 40.5518C182.39 40.939 181.097 41.1326 179.645 41.1326ZM197.069 18.2739L200.782 25.0983L204.598 18.2739H210.966L204.619 29.2469L211.257 40.7178H204.868L200.823 33.4992L196.778 40.7178H190.389L197.027 29.2469L190.68 18.2739H197.069ZM219.844 22.5884V49.3468H213.87V18.2739H219.409L219.844 22.5884ZM234.053 29.2469V29.6825C234.053 31.3143 233.86 32.8285 233.473 34.2252C233.099 35.6219 232.546 36.8388 231.813 37.876C231.08 38.8993 230.168 39.7014 229.075 40.2822C227.996 40.8491 226.752 41.1326 225.341 41.1326C223.972 41.1326 222.783 40.8561 221.774 40.3029C220.764 39.7498 219.914 38.9754 219.222 37.9797C218.545 36.9702 217.998 35.8017 217.583 34.4742C217.169 33.1466 216.851 31.7223 216.629 30.2011V29.0602C216.851 27.4285 217.169 25.935 217.583 24.5798C217.998 23.2107 218.545 22.0284 219.222 21.0327C219.914 20.0232 220.757 19.2419 221.753 18.6888C222.762 18.1356 223.945 17.8591 225.3 17.8591C226.724 17.8591 227.976 18.1287 229.054 18.668C230.147 19.2074 231.059 19.9818 231.792 20.9912C232.539 22.0007 233.099 23.2038 233.473 24.6005C233.86 25.9972 234.053 27.546 234.053 29.2469ZM228.059 29.6825V29.2469C228.059 28.2928 227.976 27.4146 227.81 26.6126C227.658 25.7967 227.409 25.0845 227.063 24.4761C226.731 23.8676 226.289 23.3974 225.735 23.0655C225.196 22.7198 224.539 22.547 223.765 22.547C222.949 22.547 222.251 22.6783 221.67 22.9411C221.103 23.2038 220.64 23.5841 220.28 24.0819C219.921 24.5798 219.651 25.1744 219.471 25.8658C219.291 26.5573 219.181 27.3386 219.139 28.2098V31.0931C219.208 32.1164 219.402 33.036 219.72 33.8519C220.038 34.6539 220.529 35.29 221.193 35.7602C221.857 36.2304 222.728 36.4655 223.806 36.4655C224.595 36.4655 225.258 36.2926 225.798 35.9469C226.337 35.5874 226.773 35.0964 227.104 34.4742C227.45 33.8519 227.692 33.1328 227.83 32.3169C227.983 31.501 228.059 30.6229 228.059 29.6825ZM244.072 8.85663V40.7178H238.077V8.85663H244.072ZM248.055 29.724V29.2884C248.055 27.6428 248.29 26.1286 248.76 24.7457C249.23 23.349 249.915 22.139 250.814 21.1157C251.713 20.0924 252.819 19.2972 254.133 18.7303C255.446 18.1495 256.954 17.8591 258.654 17.8591C260.355 17.8591 261.87 18.1495 263.197 18.7303C264.525 19.2972 265.638 20.0924 266.537 21.1157C267.449 22.139 268.141 23.349 268.611 24.7457C269.081 26.1286 269.316 27.6428 269.316 29.2884V29.724C269.316 31.3558 269.081 32.87 268.611 34.2667C268.141 35.6496 267.449 36.8596 266.537 37.8967C265.638 38.9201 264.532 39.7152 263.218 40.2822C261.904 40.8491 260.397 41.1326 258.696 41.1326C256.995 41.1326 255.481 40.8491 254.153 40.2822C252.84 39.7152 251.726 38.9201 250.814 37.8967C249.915 36.8596 249.23 35.6496 248.76 34.2667C248.29 32.87 248.055 31.3558 248.055 29.724ZM254.029 29.2884V29.724C254.029 30.6644 254.112 31.5425 254.278 32.3584C254.444 33.1743 254.706 33.8933 255.066 34.5156C255.439 35.1241 255.923 35.6012 256.518 35.9469C257.113 36.2926 257.839 36.4655 258.696 36.4655C259.526 36.4655 260.238 36.2926 260.832 35.9469C261.427 35.6012 261.904 35.1241 262.264 34.5156C262.623 33.8933 262.886 33.1743 263.052 32.3584C263.232 31.5425 263.322 30.6644 263.322 29.724V29.2884C263.322 28.3757 263.232 27.5184 263.052 26.7163C262.886 25.9004 262.616 25.1813 262.243 24.559C261.883 23.9229 261.406 23.4251 260.812 23.0655C260.217 22.706 259.498 22.5262 258.654 22.5262C257.811 22.5262 257.092 22.706 256.497 23.0655C255.916 23.4251 255.439 23.9229 255.066 24.559C254.706 25.1813 254.444 25.9004 254.278 26.7163C254.112 27.5184 254.029 28.3757 254.029 29.2884ZM278.962 23.1693V40.7178H272.988V18.2739H278.609L278.962 23.1693ZM285.724 18.1287L285.62 23.6671C285.33 23.6256 284.977 23.591 284.562 23.5634C284.161 23.5219 283.795 23.5011 283.463 23.5011C282.619 23.5011 281.887 23.6118 281.264 23.833C280.656 24.0405 280.144 24.3516 279.729 24.7665C279.328 25.1813 279.024 25.6861 278.817 26.2807C278.623 26.8753 278.512 27.5529 278.485 28.3135L277.282 27.9401C277.282 26.4881 277.427 25.1537 277.717 23.9367C278.008 22.706 278.429 21.6343 278.983 20.7216C279.55 19.8089 280.241 19.1036 281.057 18.6058C281.873 18.108 282.806 17.8591 283.857 17.8591C284.189 17.8591 284.528 17.8867 284.874 17.942C285.219 17.9835 285.503 18.0457 285.724 18.1287ZM298.46 41.1326C296.718 41.1326 295.155 40.8561 293.772 40.3029C292.389 39.7359 291.214 38.9546 290.246 37.959C289.292 36.9633 288.559 35.8086 288.047 34.4949C287.536 33.1673 287.28 31.7568 287.28 30.2633V29.4336C287.28 27.7327 287.522 26.177 288.006 24.7665C288.49 23.3559 289.181 22.1321 290.08 21.095C290.993 20.0578 292.099 19.2627 293.399 18.7095C294.699 18.1425 296.165 17.8591 297.796 17.8591C299.387 17.8591 300.797 18.1218 302.028 18.6473C303.259 19.1728 304.289 19.9195 305.119 20.8875C305.962 21.8555 306.598 23.0171 307.027 24.3723C307.456 25.7137 307.67 27.2072 307.67 28.8528V31.342H289.831V27.3593H301.8V26.903C301.8 26.0733 301.648 25.3334 301.343 24.6835C301.053 24.0197 300.611 23.4942 300.016 23.107C299.421 22.7198 298.661 22.5262 297.734 22.5262C296.946 22.5262 296.268 22.6991 295.701 23.0448C295.134 23.3905 294.671 23.8745 294.312 24.4968C293.966 25.1191 293.703 25.852 293.523 26.6955C293.357 27.5253 293.274 28.438 293.274 29.4336V30.2633C293.274 31.1622 293.399 31.9919 293.648 32.7525C293.911 33.5131 294.277 34.1699 294.747 34.7231C295.231 35.2762 295.812 35.7049 296.49 36.0091C297.181 36.3134 297.962 36.4655 298.834 36.4655C299.912 36.4655 300.915 36.258 301.841 35.8432C302.782 35.4145 303.591 34.7715 304.268 33.9141L307.172 37.067C306.702 37.7446 306.059 38.3946 305.243 39.0169C304.441 39.6391 303.473 40.1508 302.339 40.5518C301.205 40.939 299.912 41.1326 298.46 41.1326ZM317.046 23.1693V40.7178H311.072V18.2739H316.693L317.046 23.1693ZM323.808 18.1287L323.704 23.6671C323.414 23.6256 323.061 23.591 322.646 23.5634C322.245 23.5219 321.879 23.5011 321.547 23.5011C320.704 23.5011 319.971 23.6118 319.348 23.833C318.74 24.0405 318.228 24.3516 317.813 24.7665C317.412 25.1813 317.108 25.6861 316.901 26.2807C316.707 26.8753 316.596 27.5529 316.569 28.3135L315.366 27.9401C315.366 26.4881 315.511 25.1537 315.801 23.9367C316.092 22.706 316.513 21.6343 317.067 20.7216C317.634 19.8089 318.325 19.1036 319.141 18.6058C319.957 18.108 320.89 17.8591 321.941 17.8591C322.273 17.8591 322.612 17.8867 322.958 17.942C323.303 17.9835 323.587 18.0457 323.808 18.1287Z" fill="white"/>
<path d="M25.5706 1.21655L46.9737 13.0919V36.8426L25.5706 48.7179L4.16752 36.8426V13.0919L25.5706 1.21655Z" fill="#065E7C"/>
</svg>
